<svg xmlns="http://www.w3.org/2000/svg" shape-rendering="geometricPrecision" text-rendering="geometricPrecision" image-rendering="optimizeQuality" fill-rule="evenodd" clip-rule="evenodd" viewBox="0 0 512 507.563"><path fill="#012E67" fill-rule="nonzero" d="M154.715 96.699h63.8c-37.318-14.394-66.884-50.077-36.499-82.661 31.844-34.15 83.918 1.114 105.188 30.344 11.086 15.238 20.278 33.323 28.598 52.317h5.981c8.32-18.994 17.513-37.079 28.598-52.317 21.27-29.23 73.345-64.494 105.19-30.344 30.385 32.584.819 68.267-36.5 82.661h67.394c7.036 0 13.425 2.87 18.045 7.49 4.619 4.619 7.49 11.009 7.49 18.044v36.602c0 6.969-2.869 13.341-7.492 17.987l-.084.085c-3.953 3.922-9.15 6.574-14.899 7.276v172.619c0 7.464-3.045 14.24-7.946 19.141-4.9 4.901-11.674 7.945-19.137 7.945H174.403c-7.462 0-14.239-3.044-19.139-7.945a14.25 14.25 0 01-1.007-1.118c-4.308-4.797-6.938-11.122-6.938-18.023V184.231c-5.934-.623-11.296-3.319-15.351-7.352l-.085-.087c-4.605-4.644-7.461-10.997-7.461-17.957v-36.602c0-6.983 2.877-13.365 7.519-18.016l-.028-.028c4.619-4.62 11.006-7.49 18.044-7.49h4.758zm188.234 0h42.617c86.331-34.012 60.395-96.227 9.844-67.407-11.483 6.547-21.187 18.838-29.877 31.084-9.072 12.783-17.062 26.285-22.584 36.323zm-90.93 0h42.617c-5.522-10.038-13.512-23.54-22.584-36.323-8.69-12.246-18.392-24.537-29.876-31.084-50.552-28.82-76.488 33.395 9.843 67.407z"/><path fill="#FECE00" d="M154.715 110.97h326.991l.146.002h4.613c6.195 0 11.262 5.07 11.262 11.261v36.602c0 6.189-5.07 11.261-11.262 11.261H149.957c-6.194 0-11.261-5.067-11.261-11.261v-36.602c0-6.195 5.067-11.261 11.261-11.261h4.612l.146-.002zm320.536 75.73v170.102c0 7.048-5.763 12.813-12.809 12.813H174.403c-7.046 0-12.811-5.765-12.811-12.813V186.7h313.659z"/><path fill="#012E67" fill-rule="nonzero" d="M287.605 101.107h61.211c5.231 0 9.473 4.285 9.473 9.568v258.974c0 5.284-4.242 9.569-9.473 9.569h-61.211c-5.231 0-9.473-4.285-9.473-9.569V110.675c0-5.283 4.242-9.568 9.473-9.568zm51.738 19.137h-42.264v239.837h42.264V120.244z"/><path fill="#FF1D0D" d="M287.606 110.674h61.211v258.975h-61.211z"/><path fill="#fff" d="M318.21 127.313l6.585 11.218 12.24 3.08-8.171 10.014.98 13.121-11.636-5.03-11.633 5.03.98-13.123-8.171-10.012 12.242-3.081zM318.211 218.904l6.586 11.218 12.239 3.08-8.17 10.014.98 13.12-11.636-5.029-11.633 5.029.98-13.122-8.171-10.012 12.241-3.081zM318.211 300.452l6.586 11.219 12.239 3.08-8.17 10.013.98 13.121-11.636-5.029-11.633 5.029.98-13.123-8.171-10.011 12.241-3.082z"/><path fill-rule="nonzero" d="M125.042 308.735h68.607c.389 0 .767.044 1.131.124 14.586 2.584 29.13 7.718 43.642 14.427 14.044 6.495 27.992 14.432 41.897 22.95h46.431l.674.044c8.466.561 15.738 3.256 20.904 7.247 3.748 2.895 6.444 6.499 7.787 10.526l.088.291c1.303 4.115 1.2 8.551-.604 13.027-2.005 4.977-6.141 9.962-12.83 14.472-9.914 7.114-20.264 10.464-31.461 11.74-10.829 1.231-22.247.495-34.843-.609l-.116-.011c-4.827-.119-7.334 2.637-7.345 5.457-.036 9.522 22.063 4.893 26.627 4.888 14.839-.012 28.314-1.385 39.815-5.568 10.99-3.999 20.264-10.648 27.323-21.3l7.627-17.388a5.14 5.14 0 012.492-2.588l77.406-37.505c.282-.137.572-.245.864-.327 14.054-4.47 26.878-3.159 36.663 1.697 6.047 3.004 10.954 7.364 14.319 12.573 3.408 5.28 5.23 11.428 5.055 17.93-.238 9.035-4.321 18.645-13.344 27.349a5.194 5.194 0 01-.647.529c-28.208 20.053-56.724 38.299-85.526 54.833a1006.473 1006.473 0 01-87.416 44.674c-44.35 26.253-88.677 25.347-132.977-.049l-62.243-29.358v2.452a5.19 5.19 0 01-5.189 5.189H76.546a5.19 5.19 0 01-5.19-5.189V305.204a5.192 5.192 0 015.19-5.189h43.307a5.19 5.19 0 015.189 5.189v3.531z"/><path fill="#F4C8A0" d="M125.052 313.918h68.597c28.404 4.979 56.808 20.026 85.213 37.5h47.888c23.556 1.387 35.891 20.895 13.01 36.224-18.256 13.072-38.176 12.333-62.85 10.17-17.017-.819-17.762 21.534 0 21.61 6.157.465 12.868-.945 18.721-.951 30.802-.028 56.172-5.782 71.697-29.559l7.805-17.796 77.407-37.502c38.737-12.463 66.262 23.314 37.728 50.844-56.065 39.861-113.573 72.661-172.378 99.153-42.715 25.388-85.429 24.526-128.144 0l-64.694-30.514V313.918z"/><path fill="#B29275" fill-rule="nonzero" d="M311.613 357.864l1.415-.006c9.735-.049 25.251-.126 26.399 12.783l.004.081c.52 6.313-4.107 11.499-10.119 15.183-5.701 3.495-12.754 5.674-17.565 6.1l-.154.02c-1.079.086-2.029-.703-2.118-1.76l-.007-30.484c0-1.063.88-1.926 1.964-1.926l.181.009z"/><path fill="#FBF2E8" d="M311.432 359.781c8.821 0 24.986-.811 26.039 11.025.978 11.008-16.954 18.555-26.039 19.302v-30.327z"/><path fill="#F2EADF" d="M74.589 307.28h43.189v151.907H74.589z"/><circle fill="#4D4C4B" cx="99.34" cy="430.68" r="11.655"/><path fill="#2D1314" fill-rule="nonzero" d="M2.075 290.677h73.958v185.112H0V290.677z"/></svg>