<svg xmlns="http://www.w3.org/2000/svg" shape-rendering="geometricPrecision" text-rendering="geometricPrecision" image-rendering="optimizeQuality" fill-rule="evenodd" clip-rule="evenodd" viewBox="0 0 512 467.36"><g fill-rule="nonzero"><path fill="white" d="M58.328 0h281.808c-12.343 13.848-23.287 27.375-32.931 40.444H58.328c-4.93 0-9.416 2.01-12.656 5.227a17.946 17.946 0 00-5.228 12.657v350.705c0 4.868 2.04 9.331 5.289 12.579 3.263 3.263 7.749 5.304 12.595 5.304h395.344c4.815 0 9.286-2.056 12.557-5.327 3.271-3.271 5.327-7.742 5.327-12.556V173.301A950.441 950.441 0 00512 155.387v253.646c0 15.995-6.611 30.592-17.173 41.154-10.562 10.562-25.159 17.173-41.155 17.173H58.328c-15.996 0-30.624-6.58-41.194-17.15C6.596 439.671 0 425.082 0 409.033V58.328c0-16.012 6.565-30.57 17.112-41.132l.084-.084C27.758 6.565 42.317 0 58.328 0z"/><path fill="#01A601" d="M133.575 346.12c18.954-37.25 49.386-79.673 85.902-120.988-33.864-33.1-68.76-63.815-101.133-89.447-4.792-3.783-5.61-10.761-1.827-15.553a10.965 10.965 0 016.573-3.997c25.939-5.128 46.451-2.69 64.755 5.327 17.86 7.833 32.992 20.78 48.842 37.127 6.833 7.054 14.491 15.285 22.63 24.334a900.467 900.467 0 0118.495-17.845c57.165-53.59 121.141-99.314 177.702-120.561 5.732-2.155 12.137.734 14.292 6.466 1.643 4.372.351 9.125-2.889 12.098-23.516 25.09-50.563 51.51-78.786 79.077-29.149 28.475-59.566 58.197-87.904 88.117a1875.046 1875.046 0 0119.779 24.127c26.099 32.405 49.928 64.32 62.668 85.497 3.141 5.25 1.429 12.067-3.821 15.208a11.026 11.026 0 01-7.482 1.422l-34.888-4.425a11.06 11.06 0 01-7.452-4.318c-19.358-25.664-41.613-51.793-65.305-77.304-25.518 29.569-47.513 58.87-62.729 86.895-2.063 3.798-6.037 5.9-10.088 5.778l-47.62-.933c-6.114-.091-10.99-5.135-10.898-11.249a11.252 11.252 0 011.184-4.853z"/></g></svg>